<svg width="140" height="35" viewBox="0 0 140 35" fill="none" xmlns="http://www.w3.org/2000/svg">
<g clip-path="url(#clip0_1_19)">
<path d="M5.28621 0.0299985C5.3738 0.0296527 5.4614 0.029307 5.55164 0.0289507C5.69543 0.0289722 5.69543 0.0289722 5.84212 0.0289941C5.94425 0.0287089 6.04638 0.0284237 6.15161 0.0281299C6.43501 0.0273542 6.71841 0.0270647 7.00181 0.0268587C7.30753 0.0265555 7.61325 0.0258126 7.91897 0.0251358C8.65735 0.023604 9.39572 0.0228222 10.1341 0.022132C10.4821 0.0217918 10.8301 0.0213756 11.1781 0.0209694C12.3356 0.0196499 13.4931 0.0185259 14.6506 0.017964C14.9508 0.0178159 15.2511 0.0176669 15.5514 0.0175152C15.6633 0.0174589 15.6633 0.0174589 15.7776 0.0174015C16.9855 0.0167583 18.1934 0.0147939 19.4014 0.0122735C20.6426 0.00970494 21.8837 0.00831114 23.1249 0.00806361C23.8214 0.00789599 24.5178 0.00722201 25.2143 0.0052356C25.8077 0.0035471 26.401 0.00292992 26.9944 0.00368178C27.2968 0.0040329 27.5992 0.00389532 27.9015 0.00238172C28.1792 0.00100411 28.4568 0.00109956 28.7344 0.00229619C28.8807 0.00256459 29.027 0.00132255 29.1734 0C30.7745 0.0118915 32.1326 0.665184 33.2707 1.77587C34.1528 2.70407 34.7964 3.98377 34.7987 5.28621C34.7991 5.3738 34.7994 5.4614 34.7998 5.55164C34.7998 5.69543 34.7998 5.69543 34.7997 5.84212C34.8 5.94425 34.8003 6.04638 34.8006 6.15161C34.8014 6.43501 34.8017 6.71841 34.8019 7.00181C34.8022 7.30753 34.8029 7.61325 34.8036 7.91897C34.8051 8.65735 34.8059 9.39572 34.8066 10.1341C34.8069 10.4821 34.8074 10.8301 34.8078 11.1781C34.8091 12.3356 34.8102 13.4931 34.8108 14.6506C34.8109 14.9508 34.8111 15.2511 34.8112 15.5514C34.8113 15.626 34.8113 15.7007 34.8113 15.7776C34.812 16.9855 34.8139 18.1934 34.8165 19.4014C34.819 20.6426 34.8204 21.8837 34.8207 23.1249C34.8208 23.8214 34.8215 24.5178 34.8235 25.2143C34.8252 25.8077 34.8258 26.401 34.8251 26.9944C34.8247 27.2968 34.8248 27.5992 34.8264 27.9015C34.8277 28.1792 34.8276 28.4568 34.8264 28.7344C34.8262 28.8807 34.8274 29.027 34.8287 29.1734C34.817 30.7578 34.1772 32.1318 33.0674 33.2534C31.8897 34.3513 30.5339 34.8131 28.9493 34.8091C28.8459 34.8094 28.7425 34.8097 28.639 34.8101C28.3563 34.8111 28.0736 34.8111 27.7909 34.8109C27.4854 34.8109 27.1799 34.8117 26.8744 34.8124C26.2764 34.8137 25.6784 34.8142 25.0804 34.8142C24.594 34.8143 24.1076 34.8146 23.6212 34.8151C22.2405 34.8165 20.8599 34.8172 19.4793 34.8171C19.3677 34.8171 19.3677 34.8171 19.2539 34.8171C19.1795 34.8171 19.105 34.8171 19.0283 34.8171C17.8224 34.817 16.6165 34.8185 15.4106 34.8207C14.1708 34.8229 12.931 34.824 11.6912 34.8238C10.9958 34.8238 10.3004 34.8242 9.60496 34.8259C9.01273 34.8273 8.42051 34.8276 7.82828 34.8266C7.52652 34.8261 7.22478 34.8261 6.92303 34.8274C6.64598 34.8286 6.36897 34.8284 6.09193 34.8271C5.94593 34.8267 5.79993 34.8279 5.65393 34.8291C4.10969 34.8168 2.74997 34.192 1.63256 33.1329C0.723346 32.1722 0.0324773 30.8925 0.029999 29.5425C0.0296532 29.4549 0.0293072 29.3673 0.028951 29.2771C0.0289653 29.1812 0.0289794 29.0854 0.0289942 28.9866C0.028709 28.8845 0.028424 28.7824 0.0281302 28.6771C0.0273545 28.3937 0.0270651 28.1103 0.0268591 27.8269C0.0265559 27.5212 0.0258127 27.2155 0.0251359 26.9098C0.0236041 26.1714 0.0228223 25.433 0.0221322 24.6946C0.021792 24.3466 0.0213761 23.9986 0.02097 23.6506C0.0196505 22.4931 0.0185263 21.3357 0.0179645 20.1782C0.0178163 19.8779 0.017667 19.5776 0.0175153 19.2773C0.0174778 19.2027 0.0174404 19.1281 0.0174017 19.0512C0.0167584 17.8432 0.014794 16.6353 0.0122736 15.4274C0.00970499 14.1862 0.00831135 12.945 0.00806383 11.7038C0.00789621 11.0074 0.00722224 10.3109 0.00523584 9.61444C0.00354734 9.02107 0.00293003 8.42771 0.00368189 7.83433C0.00403301 7.53195 0.00389541 7.22958 0.00238181 6.9272C0.0010042 6.64957 0.00109996 6.37198 0.0022966 6.09434C0.002565 5.94802 0.00132255 5.8017 0 5.65538C0.0118915 4.05421 0.665184 2.69611 1.77587 1.55803C2.70407 0.675933 3.98377 0.0323897 5.28621 0.0299985ZM8.28171 6.79318C7.5745 7.78081 7.59675 8.7741 7.60137 9.94097C7.60095 10.1193 7.6004 10.2976 7.59973 10.4759C7.59832 10.9584 7.59886 11.4409 7.59984 11.9235C7.60063 12.4294 7.5999 12.9352 7.59941 13.4411C7.59875 14.3449 7.59978 15.2487 7.60136 16.1525C7.60274 16.9705 7.6025 17.7886 7.60107 18.6066C7.59941 19.5585 7.59879 20.5104 7.59971 21.4623C7.60019 21.9655 7.60026 22.4687 7.59923 22.9719C7.59833 23.445 7.59896 23.9182 7.60075 24.3913C7.60116 24.5646 7.60105 24.7378 7.60036 24.911C7.57703 26.1253 7.57703 26.1253 7.95177 27.2648C7.99376 27.3476 8.03575 27.4304 8.07902 27.5157C8.56705 28.2785 9.14682 28.8012 10.019 29.0914C10.2821 29.1418 10.5434 29.1378 10.8103 29.1377C10.903 29.1381 10.903 29.1381 10.9976 29.1386C11.2049 29.1394 11.4122 29.1397 11.6195 29.14C11.7681 29.1405 11.9166 29.141 12.0652 29.1416C12.5533 29.1432 13.0415 29.144 13.5296 29.1448C13.6977 29.1451 13.8659 29.1454 14.034 29.1457C14.8241 29.1472 15.6142 29.1483 16.4043 29.149C17.3157 29.1497 18.2271 29.1518 19.1386 29.1549C19.8434 29.1572 20.5482 29.1584 21.253 29.1586C21.6738 29.1588 22.0946 29.1595 22.5154 29.1615C22.9115 29.1633 23.3076 29.1636 23.7037 29.1628C23.8487 29.1628 23.9937 29.1632 24.1387 29.1643C24.9878 29.1702 25.65 29.1406 26.3922 28.6851C26.8945 28.1689 27.2041 27.5959 27.226 26.8673C27.2143 26.2264 26.9948 25.7138 26.5719 25.2327C26.0604 24.7572 25.4924 24.5388 24.793 24.5418C24.7191 24.5419 24.6451 24.5421 24.569 24.5422C24.4888 24.5427 24.4086 24.5432 24.326 24.5438C24.2408 24.544 24.1556 24.5442 24.0679 24.5445C23.883 24.545 23.6982 24.5458 23.5134 24.5466C23.2206 24.548 22.9278 24.5488 22.635 24.5494C21.8025 24.5513 20.9701 24.5541 20.1376 24.5575C19.6282 24.5597 19.1188 24.5609 18.6094 24.5618C18.4156 24.5623 18.2218 24.5631 18.028 24.5641C17.7564 24.5656 17.4848 24.5662 17.2133 24.5665C17.1337 24.5672 17.0541 24.5678 16.9722 24.5685C16.3083 24.5676 15.7209 24.5422 15.2175 24.0735C15.0241 23.8594 14.8622 23.6246 14.7048 23.383C14.3254 23.0244 13.7297 23.0546 13.2357 23.0613C13.1729 23.0615 13.1101 23.0617 13.0453 23.0619C12.847 23.0628 12.6487 23.0647 12.4504 23.0667C12.315 23.0675 12.1795 23.0682 12.0441 23.0688C11.7141 23.0705 11.3842 23.0732 11.0543 23.0764C10.8234 22.6146 10.8666 21.9429 10.9767 21.4476C11.0543 21.3701 11.0543 21.3701 11.2607 21.3625C11.3513 21.3634 11.442 21.3643 11.5354 21.3652C11.6356 21.3658 11.7358 21.3664 11.839 21.367C11.9458 21.368 12.0527 21.369 12.1595 21.3701C12.7524 21.3759 13.345 21.3794 13.9374 21.3507C14.0155 21.3471 14.0935 21.3435 14.1739 21.3398C14.5638 21.2543 14.791 20.9904 15.0099 20.672C15.321 20.2483 15.571 20.038 16.0984 19.9277C16.5531 19.8658 17.0122 19.8761 17.4703 19.8775C17.6625 19.8779 17.8546 19.8772 18.0468 19.8761C18.5927 19.8733 19.1386 19.8718 19.6846 19.8727C20.0198 19.8731 20.355 19.8717 20.6903 19.8691C20.8171 19.8685 20.944 19.8686 21.0709 19.8694C21.8632 19.8744 22.5499 19.8482 23.1613 19.2801C23.7579 18.6548 23.9607 18.0051 23.9502 17.1535C23.8936 16.3787 23.4942 15.828 22.9213 15.3202C22.526 15.0562 22.2371 14.9647 21.7582 14.9713C21.6987 14.9709 21.6392 14.9704 21.578 14.97C21.4497 14.9693 21.3214 14.9693 21.1932 14.9699C20.9896 14.9709 20.7861 14.97 20.5825 14.9686C20.2235 14.9666 19.8644 14.9661 19.5054 14.9662C18.9313 14.9664 18.3573 14.9653 17.7832 14.9619C17.5837 14.9612 17.3842 14.9618 17.1846 14.9626C15.7979 14.9608 15.7979 14.9608 15.2717 14.5349C15.0875 14.3119 15.0875 14.3119 14.9736 14.1371C14.9312 14.0748 14.8888 14.0125 14.8451 13.9483C14.8081 13.8888 14.7711 13.8293 14.733 13.768C14.1331 13.2771 13.0565 13.4408 12.3195 13.449C12.1963 13.4498 12.0732 13.4505 11.95 13.4511C11.6514 13.4528 11.3528 13.4555 11.0543 13.4587C10.9545 13.2591 10.9479 13.0896 10.9282 12.8673C10.9171 12.7506 10.9171 12.7506 10.9058 12.6316C10.898 12.3288 10.9332 12.0519 10.9767 11.7523C11.0597 11.7597 11.1427 11.7671 11.2282 11.7747C11.9981 11.8342 12.7559 11.831 13.5266 11.7814C13.6572 11.7748 13.6572 11.7748 13.7904 11.768C14.2832 11.7334 14.2832 11.7334 14.7048 11.4942C14.7543 11.4258 14.8038 11.3574 14.8548 11.2869C14.8973 11.2324 14.9398 11.1778 14.9836 11.1215C15.0564 11.0181 15.1291 10.9147 15.2017 10.8113C15.3945 10.5756 15.5746 10.4524 15.8631 10.3562C15.9883 10.3488 16.1138 10.3459 16.2392 10.3455C16.3167 10.3451 16.3943 10.3446 16.4741 10.3442C16.5591 10.3441 16.6441 10.344 16.7316 10.344C16.8212 10.3436 16.9108 10.3432 17.0031 10.3428C17.1979 10.3419 17.3928 10.3413 17.5877 10.3407C17.8965 10.3398 18.2053 10.3383 18.514 10.3366C19.3921 10.3318 20.2702 10.3276 21.1483 10.3251C21.6332 10.3236 22.1181 10.3214 22.6031 10.3182C22.8594 10.3166 23.1157 10.3155 23.372 10.3152C23.6586 10.3149 23.9452 10.3131 24.2318 10.3109C24.3157 10.3112 24.3996 10.3114 24.486 10.3116C25.3038 10.3027 25.9552 10.1367 26.5667 9.58058C27.0047 9.13048 27.2055 8.61863 27.226 7.9954C27.2015 7.33953 27.0373 6.85366 26.5861 6.37143C26.0539 5.879 25.5161 5.691 24.7985 5.69052C24.7363 5.69018 24.674 5.68984 24.6099 5.68949C24.4006 5.68845 24.1912 5.68797 23.9819 5.6875C23.8321 5.68689 23.6822 5.68625 23.5324 5.68558C23.0396 5.68354 22.5467 5.68236 22.0539 5.68125C21.8841 5.68084 21.7144 5.68042 21.5446 5.68C20.8382 5.67832 20.1318 5.67687 19.4254 5.676C18.4137 5.67474 17.4021 5.67217 16.3905 5.66774C15.6789 5.66474 14.9673 5.66323 14.2557 5.66282C13.8309 5.66253 13.4061 5.66161 12.9814 5.65908C12.5812 5.65674 12.1811 5.65627 11.781 5.65718C11.6347 5.65719 11.4884 5.65655 11.342 5.65519C10.1461 5.64462 9.09954 5.82715 8.28171 6.79318Z" fill="#FEFEFE"/>
<path d="M58.8423 9.04733C59.4886 9.65374 59.8308 10.3173 59.8652 11.1997C59.8445 11.994 59.5564 12.5555 59.0193 13.1242C58.5023 13.6119 57.9467 13.7864 57.2426 13.8077C56.3081 13.7786 55.716 13.4006 55.0412 12.7818C53.6895 11.5433 51.8973 10.9736 50.0808 11.0321C48.5531 11.1169 47.1242 11.7085 45.9573 12.6831C45.9065 12.7226 45.8557 12.7621 45.8034 12.8027C44.5722 13.8 43.7212 15.4548 43.5529 17.0266C43.4145 18.9096 43.7346 20.8239 44.9938 22.3117C45.2034 22.5492 45.4232 22.7747 45.6471 22.9989C45.7321 23.0852 45.7321 23.0852 45.8188 23.1734C47.0204 24.319 48.8139 24.9379 50.4559 24.9379C52.4493 24.8452 54.0612 24.1141 55.5169 22.7759C56.0352 22.3112 56.6564 22.1203 57.3462 22.1345C58.0446 22.1811 58.6557 22.4235 59.1493 22.9328C59.7014 23.614 59.9096 24.2969 59.841 25.1706C59.6202 26.4109 58.5469 27.247 57.5729 27.9455C54.8372 29.8491 51.5093 30.5977 48.2221 30.0188C45.4894 29.478 42.8394 28.0543 41.0709 25.8687C41.0139 25.8009 40.9569 25.7331 40.8982 25.6632C39.6604 24.1346 38.7997 22.2963 38.4338 20.3617C38.4201 20.2912 38.4065 20.2207 38.3924 20.148C38.268 19.4365 38.2508 18.7402 38.2544 18.0203C38.2546 17.9603 38.2547 17.9003 38.2549 17.8384C38.2588 16.9553 38.2854 16.1004 38.5113 15.2426C38.5351 15.1503 38.5351 15.1503 38.5593 15.0562C39.396 11.8814 41.2655 9.34888 44.0182 7.56395C44.0947 7.51356 44.1712 7.46317 44.25 7.41125C48.9058 4.51373 54.8508 5.6028 58.8423 9.04733Z" fill="#FEFEFE"/>
<path d="M77.7094 6.52171C78.4141 7.12091 78.7686 8.09612 79.1679 8.90736C79.3618 9.30029 79.5636 9.68835 79.7696 10.075C80.0645 10.6298 80.3481 11.1896 80.6277 11.7523C80.9056 12.3118 81.1876 12.8683 81.4808 13.4199C81.8161 14.0505 82.1357 14.6882 82.4534 15.3278C82.692 15.8069 82.9359 16.2825 83.1872 16.7551C83.5225 17.3856 83.842 18.0234 84.1598 18.6629C84.3984 19.142 84.6423 19.6177 84.8936 20.0903C85.2289 20.7208 85.5484 21.3586 85.8661 21.9981C86.1048 22.4772 86.3487 22.9529 86.6 23.4255C87.0186 24.2131 87.4163 25.011 87.8121 25.8102C87.8838 25.9541 87.9563 26.0976 88.0295 26.2407C88.0644 26.309 88.0992 26.3773 88.1351 26.4477C88.1663 26.508 88.1974 26.5684 88.2294 26.6306C88.4982 27.2205 88.463 27.9511 88.2724 28.5591C87.9777 29.2675 87.468 29.756 86.7754 30.0695C86.1328 30.308 85.4137 30.2875 84.7679 30.0646C83.7243 29.5831 83.3007 28.5358 82.8091 27.5653C82.7487 27.4469 82.6882 27.3284 82.6277 27.21C82.4963 26.9527 82.3652 26.6952 82.2343 26.4377C82.0153 26.0069 81.7956 25.5766 81.5757 25.1464C81.2998 24.6064 81.024 24.0664 80.7484 23.5263C80.2479 22.5456 79.7463 21.5654 79.2441 20.5856C78.8506 19.8179 78.4576 19.0499 78.0654 18.2815C77.9858 18.1256 77.9062 17.9698 77.8267 17.8139C77.6763 17.5194 77.5261 17.2249 77.3759 16.9303C76.8892 15.9765 76.3951 15.0268 75.8964 14.0792C75.6026 14.4119 75.42 14.7704 75.2268 15.1657C75.1929 15.2339 75.159 15.3022 75.1241 15.3725C75.0159 15.5908 74.9083 15.8093 74.8008 16.0279C74.6603 16.3127 74.5194 16.5972 74.3784 16.8817C74.3261 16.9874 74.3261 16.9874 74.2728 17.0952C74.0057 17.6324 73.729 18.164 73.448 18.694C73.1964 19.1687 72.954 19.6473 72.7163 20.1291C72.4088 20.7484 72.0938 21.3628 71.7692 21.9733C71.5081 22.4663 71.2582 22.9646 71.0099 23.4642C70.7022 24.0836 70.3875 24.6982 70.0627 25.3086C69.8441 25.7211 69.6339 26.1372 69.4268 26.5555C69.0893 27.2369 68.749 27.9168 68.3922 28.5882C68.3444 28.6815 68.3444 28.6815 68.2956 28.7768C67.8987 29.5109 67.3104 29.9392 66.5177 30.1797C65.8422 30.3153 65.1767 30.2297 64.5723 29.9019C63.9388 29.4576 63.4808 28.8903 63.3313 28.118C63.3162 27.9649 63.3071 27.8112 63.3022 27.6574C63.2984 27.5784 63.2946 27.4993 63.2907 27.4178C63.3456 26.6012 63.8615 25.7941 64.2378 25.0882C64.3349 24.904 64.4316 24.7196 64.5283 24.5353C64.5755 24.4456 64.6227 24.3559 64.6713 24.2635C64.8562 23.9088 65.0348 23.5512 65.2122 23.1928C65.4864 22.6396 65.7705 22.0925 66.06 21.5471C66.3081 21.0779 66.5467 20.6044 66.7828 20.1291C67.0461 19.5987 67.3144 19.0716 67.5923 18.5487C67.8872 17.9939 68.1708 17.4341 68.4504 16.8714C68.7581 16.2522 69.0729 15.6377 69.3975 15.0272C69.6586 14.5341 69.9085 14.0359 70.1567 13.5363C70.4644 12.917 70.7792 12.3025 71.1039 11.692C71.3649 11.199 71.6149 10.7007 71.8631 10.2011C72.1531 9.61786 72.4466 9.03701 72.7502 8.46077C72.7804 8.40353 72.8105 8.34629 72.8416 8.28731C73.8224 6.43577 73.8224 6.43577 74.9074 6.09997C75.8622 5.87789 76.878 5.96907 77.7094 6.52171Z" fill="#FEFEFE"/>
<path d="M129.294 6.47626C129.957 7.00125 130.283 7.6963 130.641 8.44138C130.723 8.61011 130.806 8.77867 130.889 8.94722C130.943 9.05806 130.997 9.16896 131.052 9.27991C131.254 9.6946 131.465 10.1044 131.683 10.5113C132.012 11.1287 132.325 11.7539 132.636 12.3805C132.875 12.8596 133.119 13.3352 133.37 13.8077C133.705 14.4383 134.025 15.076 134.343 15.7156C134.581 16.1947 134.825 16.6703 135.076 17.1429C135.412 17.7735 135.731 18.4112 136.049 19.0508C136.288 19.5299 136.532 20.0055 136.783 20.4781C137.118 21.1085 137.437 21.7462 137.755 22.3856C137.995 22.868 138.241 23.347 138.494 23.823C138.78 24.3625 139.059 24.9056 139.333 25.4518C139.368 25.5216 139.403 25.5915 139.439 25.6634C139.537 25.8605 139.634 26.0584 139.73 26.2565C139.761 26.3166 139.791 26.3767 139.822 26.4386C140.017 26.8395 140.091 27.1692 140.079 27.6138C140.078 27.6713 140.077 27.7287 140.076 27.7879C140.06 28.2383 139.979 28.5897 139.73 28.9712C139.698 29.0249 139.666 29.0787 139.633 29.1342C139.287 29.6598 138.801 29.9301 138.227 30.1637C137.492 30.2905 136.831 30.2532 136.162 29.9019C135.638 29.53 135.269 29.0731 134.978 28.5015C134.955 28.4553 134.931 28.409 134.906 28.3613C134.827 28.2061 134.748 28.0505 134.669 27.895C134.612 27.7825 134.554 27.6699 134.497 27.5575C134.37 27.3102 134.244 27.0628 134.118 26.8152C133.903 26.391 133.686 25.9671 133.469 25.5433C133.193 25.0025 132.917 24.4618 132.641 23.9209C132.139 22.9378 131.637 21.9553 131.133 20.9731C130.742 20.2091 130.35 19.4449 129.96 18.6802C129.882 18.5267 129.803 18.3733 129.725 18.2198C129.609 17.993 129.493 17.7662 129.378 17.5393C129.022 16.8417 128.665 16.1441 128.302 15.4502C128.278 15.4031 128.253 15.356 128.228 15.3075C128.118 15.0988 128.008 14.8903 127.898 14.6821C127.862 14.6132 127.826 14.5443 127.788 14.4734C127.757 14.4152 127.727 14.3569 127.695 14.297C127.63 14.1568 127.63 14.1568 127.63 14.0016C127.579 14.0016 127.528 14.0016 127.475 14.0016C127.447 14.0781 127.447 14.0781 127.417 14.1561C127.295 14.4512 127.153 14.7347 127.01 15.0202C126.98 15.0811 126.949 15.142 126.918 15.2048C126.819 15.4017 126.721 15.5985 126.622 15.7953C126.589 15.8623 126.555 15.9294 126.52 15.9985C126.134 16.7714 125.745 17.5427 125.337 18.3052C125.043 18.8586 124.765 19.4203 124.486 19.9818C124.218 20.5205 123.941 21.0541 123.658 21.5855C123.397 22.0785 123.147 22.5768 122.899 23.0764C122.591 23.6957 122.277 24.3101 121.952 24.9206C121.691 25.4137 121.441 25.912 121.193 26.4116C120.902 26.9951 120.61 27.578 120.31 28.1568C120.281 28.2146 120.252 28.2725 120.221 28.3322C119.779 29.1782 119.251 29.8549 118.32 30.1582C117.531 30.3436 116.829 30.1997 116.132 29.8022C115.56 29.4129 115.154 28.8086 115.022 28.1277C115.014 28.0477 115.006 27.9677 114.997 27.8853C114.988 27.8069 114.979 27.7285 114.969 27.6477C115.029 26.6672 115.543 25.8077 115.991 24.9573C116.061 24.8242 116.13 24.691 116.199 24.5577C116.343 24.28 116.488 24.0024 116.633 23.725C116.941 23.133 117.245 22.5384 117.549 21.9438C117.684 21.6797 117.819 21.4156 117.955 21.1516C118.465 20.1556 118.974 19.1592 119.483 18.1627C120.047 17.0593 120.611 15.9563 121.176 14.8536C121.603 14.0212 122.029 13.1886 122.454 12.3556C122.644 11.9852 122.833 11.6148 123.023 11.2446C123.343 10.6186 123.663 9.99247 123.978 9.36359C124.104 9.11285 124.231 8.86249 124.357 8.61218C124.415 8.49721 124.472 8.38205 124.53 8.26668C124.923 7.47222 125.321 6.67173 126.166 6.28418C126.28 6.23019 126.28 6.23019 126.395 6.1751C127.365 5.81295 128.419 5.96698 129.294 6.47626Z" fill="#FEFEFE"/>
<path d="M93.5069 6.3884C94.2614 6.93998 94.6136 7.70448 95.0058 8.52379C95.0931 8.70292 95.1808 8.88185 95.2685 9.06079C95.3259 9.17796 95.3831 9.2952 95.4403 9.41251C95.6477 9.83816 95.863 10.2588 96.0868 10.6761C96.4146 11.2903 96.7255 11.9123 97.0352 12.5357C97.2738 13.0147 97.5177 13.4903 97.7689 13.9628C98.1042 14.5934 98.4237 15.2312 98.7415 15.8707C98.9801 16.3498 99.224 16.8255 99.4753 17.298C99.8102 17.9278 100.129 18.5647 100.447 19.2035C100.697 19.706 100.953 20.205 101.216 20.7011C101.247 20.7612 101.279 20.8213 101.312 20.8833C101.357 20.969 101.357 20.969 101.404 21.0565C101.542 21.3168 101.678 21.5777 101.812 21.8403C101.841 21.8972 101.87 21.9541 101.9 22.0127C101.957 22.1457 101.957 22.1457 101.957 22.3008C102.008 22.3008 102.06 22.3008 102.112 22.3008C102.132 22.2365 102.152 22.1722 102.172 22.1059C102.28 21.8006 102.415 21.5197 102.561 21.231C102.589 21.1737 102.618 21.1163 102.648 21.0573C102.74 20.8721 102.834 20.6872 102.927 20.5023C102.991 20.3744 103.055 20.2466 103.119 20.1187C103.462 19.4363 103.809 18.7564 104.169 18.0827C104.465 17.5266 104.744 16.9623 105.024 16.3983C105.292 15.8595 105.569 15.3259 105.852 14.7945C106.155 14.2225 106.442 13.6432 106.73 13.0636C107 12.5211 107.279 11.9837 107.564 11.4484C107.809 10.9845 108.045 10.5161 108.279 10.0459C108.668 9.26387 109.066 8.48787 109.481 7.71908C109.524 7.63829 109.567 7.55751 109.611 7.47427C109.987 6.80129 110.512 6.30592 111.265 6.09027C112.066 5.9298 112.808 6.01324 113.501 6.46657C114.076 6.94057 114.488 7.51644 114.564 8.27171C114.57 8.38475 114.573 8.49789 114.576 8.61105C114.577 8.66249 114.579 8.71393 114.58 8.76693C114.56 9.64361 114.012 10.4631 113.615 11.2227C113.493 11.4566 113.372 11.6909 113.251 11.9252C113.185 12.0527 113.119 12.1802 113.053 12.3077C112.679 13.0294 112.31 13.7534 111.941 14.4774C111.742 14.867 111.543 15.2566 111.344 15.6462C111.305 15.7232 111.266 15.8001 111.225 15.8794C110.833 16.6467 110.441 17.4136 110.048 18.1803C110.015 18.2451 109.982 18.3099 109.947 18.3767C109.748 18.7668 109.548 19.1568 109.348 19.5468C109.046 20.1351 108.745 20.7235 108.443 21.3119C108.41 21.3768 108.377 21.4417 108.343 21.5086C107.912 22.3495 107.482 23.1906 107.052 24.0321C106.862 24.4036 106.672 24.7751 106.482 25.1464C106.168 25.7598 105.854 26.3732 105.546 26.9899C105.428 27.2259 105.309 27.4615 105.191 27.6971C105.137 27.8041 105.084 27.9112 105.031 28.0187C104.57 28.9574 104.06 29.7569 103.043 30.1346C102.313 30.3417 101.36 30.3068 100.664 30.0055C100.043 29.6492 99.6191 29.1277 99.2953 28.4958C99.272 28.4506 99.2488 28.4054 99.2248 28.3589C99.1495 28.2126 99.0748 28.0659 99.0002 27.9192C98.9479 27.8172 98.8956 27.7152 98.8432 27.6132C98.5193 26.9814 98.2003 26.3471 97.8847 25.711C97.6442 25.2274 97.3932 24.7497 97.1398 24.2727C96.8763 23.7743 96.6236 23.271 96.3728 22.7662C96.0948 22.2067 95.8129 21.6502 95.5196 21.0986C95.1843 20.468 94.8648 19.8303 94.5471 19.1907C94.3084 18.7116 94.0645 18.236 93.8132 17.7634C93.478 17.133 93.1585 16.4953 92.8409 15.8559C92.5706 15.3133 92.292 14.7759 92.0075 14.2407C91.7241 13.7055 91.4541 13.164 91.185 12.6215C90.9497 12.1486 90.7067 11.6805 90.4587 11.2142C90.3353 10.9802 90.2126 10.7458 90.0902 10.5113C90.0622 10.458 90.0341 10.4047 90.0052 10.3498C89.5359 9.44921 89.3303 8.69897 89.6194 7.69999C89.7487 7.36738 89.9238 7.1238 90.1678 6.86589C90.2116 6.8172 90.2554 6.76851 90.3005 6.71834C91.1926 5.82813 92.4394 5.86454 93.5069 6.3884Z" fill="#FEFEFE"/>
</g>
<defs>
<clipPath id="clip0_1_19">
<rect width="140" height="35" fill="white"/>
</clipPath>
</defs>
</svg>
